<svg width="72" height="207" viewBox="0 0 72 207" fill="none" xmlns="http://www.w3.org/2000/svg">
<path d="M35.764 206.847C55.5159 206.847 71.528 199.212 71.528 189.795C71.528 180.378 55.5159 172.743 35.764 172.743C16.0121 172.743 0 180.378 0 189.795C0 199.212 16.0121 206.847 35.764 206.847Z" fill="#E6E6E6"/>
<path d="M15.0234 57.604L10.9031 66.5038L18.5731 73.0709L25.2036 61.8764L15.0234 57.604Z" fill="#F28F8F"/>
<path d="M33.9384 37.2434C29.0448 37.2434 23.6568 39.0817 21.8058 42.9104C19.9549 46.7391 14.1992 58.6942 14.1992 58.6942C14.1992 58.6942 18.5223 65.0331 25.3809 64.5767L33.9384 37.2434Z" fill="#37474F"/>
<path d="M55.1613 178.461H48.3914V188.312H55.1613V178.461Z" fill="#FFA8A7"/>
<path d="M31.3589 166.273L24.593 166.506L24.9316 176.351L31.6976 176.118L31.3589 166.273Z" fill="#FFA8A7"/>
<path d="M54.7047 82.2876C54.7047 88.7533 55.5415 130.539 55.5415 130.539C55.7063 132.39 57.4431 135.826 57.0628 142.963C56.5557 152.662 55.719 179.602 55.719 179.602C55.719 179.602 52.5495 182.746 48.1123 179.602C48.1123 179.602 41.9762 142.989 40.7719 133.379C39.7069 124.999 37.9194 102.217 37.9194 102.217L31.6439 129.031C31.6439 129.031 32.7468 135.369 33.0004 139.781C33.254 144.193 31.8467 169.942 31.8467 169.942C30.7498 170.626 29.493 171.012 28.2009 171.061C26.9089 171.11 25.6265 170.82 24.4809 170.221C24.4809 170.221 19.0548 132.669 18.3576 128.65C17.6603 124.631 23.1117 82.2876 23.1117 82.2876H54.7047Z" fill="#37474F"/>
<path d="M44.5246 37.5477H44.626C47.5302 38.2779 50.1065 39.959 51.9445 42.3232C53.7825 44.6873 54.7765 47.5986 54.7682 50.5931V82.2876C50.0267 87.4474 33.4949 89.8942 23.0738 82.2876V49.3253C23.0738 44.0641 26.0023 37.7252 34.0781 37.2561L44.5246 37.5477Z" fill="#455A64"/>
<path d="M46.8067 10.5823C47.3505 10.5215 47.901 10.5846 48.417 10.7668C48.9329 10.949 49.401 11.2457 49.786 11.6345C51.0537 12.9023 50.8002 15.3745 49.786 20.94L45.8305 21.3964L46.8067 10.5823Z" fill="#263238"/>
<path d="M23.7205 9.0356C22.8717 9.03798 22.031 8.86984 21.2484 8.54117C19.9806 7.84389 19.7144 9.22576 20.3736 10.4175C20.8154 11.2778 21.4704 12.0104 22.2761 12.5454C23.0818 13.0803 24.0113 13.3996 24.9757 13.4728C24.9757 13.308 26.104 10.3921 26.104 10.3921L23.7205 9.0356Z" fill="#263238"/>
<path d="M44.9427 21.3964C45.5386 21.7514 46.3753 20.6231 47.0979 19.8624C47.3811 19.5327 47.7443 19.2813 48.1527 19.1324C48.5611 18.9835 49.0008 18.942 49.4298 19.012C49.8588 19.082 50.2626 19.2612 50.6024 19.5322C50.9422 19.8032 51.2067 20.157 51.3703 20.5597C52.6381 23.0953 49.8363 26.4675 48.2389 27.5705C47.7907 27.961 47.2303 28.1995 46.6382 28.2519C46.0461 28.3043 45.4525 28.1679 44.9427 27.8621L44.5243 37.5479C43.8146 39.1018 42.7311 40.4558 41.3706 41.4889C40.0101 42.522 38.4149 43.2021 36.7275 43.4685C31.0352 44.2418 32.2142 39.551 34.0778 37.2437V33.7192C32.6585 34.0273 31.1987 34.1044 29.7547 33.9474C29.0067 33.7446 27.2192 31.6021 26.0908 29.206C24.8231 26.5183 22.6805 21.7514 24.5822 13.6757C26.6233 4.99142 35.9922 4.72518 41.4944 8.22424C46.9965 11.7233 44.9427 21.3964 44.9427 21.3964Z" fill="#FFA8A7"/>
<path d="M44.9428 22.3851C45.2471 22.3851 46.3627 20.5342 47.098 19.8496C48.1122 18.9241 46.8064 10.5695 46.8064 10.5695C46.8064 10.5695 47.8333 7.41268 45.8302 5.30817C43.8271 3.20366 39.9351 3.55865 37.0952 3.45723C33.6104 3.47859 30.1583 2.78385 26.953 1.41611C22.9215 -0.333425 22.6172 -0.536281 22.1228 1.22593C21.7316 2.6859 21.6825 4.21644 21.9794 5.69847C22.2762 7.1805 22.911 8.57407 23.8343 9.77075L25.8374 10.5061C25.8374 10.5061 26.915 11.4696 30.6803 11.926C34.1525 12.1831 37.6409 12.1194 41.1014 11.7358C42.1917 11.5837 42.3692 12.6359 43.0158 15.5391C43.5229 18.0747 43.9539 22.3725 44.9428 22.3851Z" fill="#263238"/>
<path d="M46.7939 11.2413L50.3563 9.32694C50.2433 9.08752 50.0828 8.87361 49.8845 8.69817C49.6862 8.52274 49.4543 8.38945 49.2029 8.30644C48.9515 8.22343 48.6859 8.19244 48.4221 8.21531C48.1583 8.23818 47.902 8.31445 47.6686 8.4395C47.1913 8.70522 46.8344 9.14418 46.6716 9.66564C46.5087 10.1871 46.5525 10.7512 46.7939 11.2413V11.2413Z" fill="#263238"/>
<path d="M34.0906 33.719C36.52 33.2627 38.9012 32.5794 41.2028 31.6779C42.2859 31.1098 43.1703 30.2254 43.7384 29.1423C43.4616 30.2185 42.97 31.2276 42.2931 32.1089C40.9493 33.8331 34.0779 35.1009 34.0779 35.1009L34.0906 33.719Z" fill="#F28F8F"/>
<path d="M35.3585 20.0777C35.3635 20.2877 35.4305 20.4915 35.5511 20.6635C35.6717 20.8355 35.8404 20.968 36.0361 21.0444C36.2318 21.1207 36.4458 21.1374 36.651 21.0925C36.8562 21.0475 37.0435 20.9429 37.1894 20.7918C37.3352 20.6406 37.4332 20.4497 37.4708 20.243C37.5084 20.0364 37.4841 19.8232 37.4009 19.6303C37.3176 19.4374 37.1792 19.2735 37.0031 19.1591C36.8269 19.0447 36.6208 18.9849 36.4107 18.9874C36.1271 18.994 35.8576 19.1122 35.6606 19.3163C35.4636 19.5204 35.3551 19.794 35.3585 20.0777Z" fill="#263238"/>
<path d="M36.4742 16.0969L38.7436 17.3647C38.9009 17.0532 38.9334 16.6935 38.8344 16.3589C38.7355 16.0243 38.5125 15.7401 38.2111 15.5644C38.0626 15.483 37.8993 15.4322 37.7309 15.415C37.5624 15.3978 37.3922 15.4145 37.2303 15.4641C37.0684 15.5138 36.9181 15.5953 36.7882 15.704C36.6584 15.8127 36.5516 15.9463 36.4742 16.0969Z" fill="#263238"/>
<path d="M35.4344 27.2407L33.0256 28.1535C33.0784 28.3149 33.163 28.464 33.2744 28.592C33.3858 28.7201 33.5218 28.8244 33.6744 28.8989C33.8269 28.9734 33.9928 29.0165 34.1623 29.0257C34.3318 29.0348 34.5014 29.0099 34.6611 28.9522C34.9879 28.8244 35.2518 28.5738 35.3964 28.254C35.5409 27.9342 35.5545 27.5705 35.4344 27.2407V27.2407Z" fill="#F28F8F"/>
<path d="M25.939 16.9716L27.9801 15.3742C27.882 15.2354 27.757 15.1178 27.6125 15.0284C27.468 14.9389 27.307 14.8793 27.1391 14.8533C26.9711 14.8273 26.7997 14.8353 26.6349 14.8769C26.4701 14.9185 26.3154 14.9927 26.1798 15.0953C25.906 15.317 25.7281 15.6357 25.6833 15.9852C25.6384 16.3346 25.73 16.6879 25.939 16.9716V16.9716Z" fill="#263238"/>
<path d="M26.573 19.7862C26.5696 20.0698 26.6781 20.3434 26.8751 20.5475C27.0721 20.7516 27.3417 20.8698 27.6252 20.8764C27.9122 20.8698 28.1849 20.7502 28.3843 20.5438C28.5837 20.3373 28.6936 20.0605 28.6902 19.7735C28.7065 19.6247 28.6913 19.4742 28.6455 19.3318C28.5997 19.1893 28.5245 19.0581 28.4246 18.9467C28.3247 18.8352 28.2024 18.7461 28.0658 18.6851C27.9292 18.6241 27.7812 18.5925 27.6316 18.5925C27.482 18.5925 27.334 18.6241 27.1974 18.6851C27.0607 18.7461 26.9385 18.8352 26.8386 18.9467C26.7387 19.0581 26.6634 19.1893 26.6177 19.3318C26.5719 19.4742 26.5567 19.6247 26.573 19.7735V19.7862Z" fill="#263238"/>
<path d="M31.9609 18.7847L31.6059 25.1362L28.297 24.0079L31.9609 18.7847Z" fill="#F28F8F"/>
<path d="M48.3914 184.965V183.989C47.7449 184.268 46.2362 190.011 43.5612 192.457C41.4186 194.397 38.4901 196.654 37.7674 198.796C37.0448 200.939 41.8243 202.295 43.8148 201.94C46.1348 201.535 50.1536 199.899 51.1552 198.391C52.1567 196.882 52.6385 194.651 53.4498 193.535C54.2612 192.419 56.1629 191.19 56.6066 189.909C56.7371 188.711 56.6029 187.5 56.2136 186.359C55.8967 185.168 55.567 183.824 55.1614 183.963C55.1614 184.103 55.1614 184.699 55.1614 184.699C54.1986 185.458 53.0026 185.861 51.7764 185.84C50.8002 185.916 48.3787 185.726 48.3914 184.965Z" fill="#263238"/>
<path d="M24.8741 174.252C24.5192 174.252 24.2276 174.759 23.4542 175.596C22.2999 176.771 20.9536 177.74 19.4734 178.461C16.9378 179.729 12.0189 181.681 9.78757 182.683C8.4057 183.317 8.51981 184.99 9.90169 185.954C11.2836 186.917 14.8207 187.602 18.9916 186.664C21.261 186.157 24.2276 184.065 26.0912 184.128C27.9548 184.192 31.4666 184.217 32.8484 183.266C34.2303 182.315 33.6852 180.274 33.2922 178.525C32.8992 176.775 32.2526 173.707 31.6187 173.834V174.43C30.8073 175.698 26.6617 176.167 24.8741 175.266V174.252Z" fill="#263238"/>
<path d="M15.8221 67.8478C14.3895 65.1727 14.0345 65.0586 13.1725 64.4755C12.3104 63.8923 7.0998 63.1063 4.9319 62.9288C2.39635 62.7132 1.47085 63.1823 2.18081 65.3756C4.14403 70.9031 6.53467 76.2693 9.33107 81.4257C10.0157 82.3258 10.1551 83.1625 13.0203 83.4414C15.8855 83.7203 19.0676 83.8471 20.0565 83.9105C21.0453 83.9739 22.4145 84.2148 21.5271 81.2989C20.3945 78.007 19.0869 74.778 17.6097 71.6257C16.5701 69.2296 15.8221 67.8478 15.8221 67.8478Z" fill="#017EFA"/>
<path d="M67.7885 75.8852C67.7251 75.0485 65.253 65.5909 63.9852 61.217L54.7051 64.4118L56.8857 71.2959L65.0501 79.7519C65.9157 79.5821 66.6828 79.086 67.1925 78.3662C67.7023 77.6463 67.9157 76.758 67.7885 75.8852V75.8852Z" fill="#FFA8A7"/>
<path d="M56.8474 71.2959C56.8474 71.2959 31.2636 74.0343 28.259 73.1088C25.2544 72.1834 21.2228 69.1788 19.0549 67.9363C16.887 66.6939 15.3277 66.5925 15.3277 67.1123C15.3277 67.6321 17.1786 70.4592 17.6097 71.6255C18.0407 72.7919 15.6066 72.8046 12.4371 72.0693C9.2677 71.334 7.98725 69.5337 7.15051 70.5733C6.31378 71.6129 8.91271 76.9122 14.1867 78.9026C19.4606 80.893 23.3781 79.5745 27.7392 79.752C32.1004 79.9295 58.9646 81.6537 65.0119 79.752C65.1723 78.7846 65.0618 77.7916 64.6925 76.8831C64.3233 75.9746 63.7098 75.1861 62.92 74.6048C61.1093 73.1486 59.0527 72.028 56.8474 71.2959V71.2959Z" fill="#FFA8A7"/>
<path d="M46.6671 38.2705C50.686 39.6017 58.6603 40.2736 61.2339 48.9705C63.8074 57.6675 65.1006 63.3091 65.1006 63.3091C63.5793 65.3375 57.4939 67.6829 54.7048 66.8082L46.6671 38.2705Z" fill="#455A64"/>
<path d="M54.7049 66.808L51.9539 57.0461L54.7049 70.7889V66.808Z" fill="#37474F"/>
</svg>
