<svg width="74" height="205" viewBox="0 0 74 205" fill="none" xmlns="http://www.w3.org/2000/svg">
<path d="M34.3694 204.614C53.3512 204.614 68.7389 197.281 68.7389 188.235C68.7389 179.188 53.3512 171.855 34.3694 171.855C15.3877 171.855 0 179.188 0 188.235C0 197.281 15.3877 204.614 34.3694 204.614Z" fill="#E6E6E6"/>
<path d="M73.2651 34.9857C73.1383 35.1505 72.0607 36.9381 72.0607 36.9381L67.1037 44.0376L62.2735 51.2766C62.1213 51.4972 61.9031 51.6639 61.6503 51.7527C61.3974 51.8415 61.1229 51.8479 60.8662 51.771L60.5366 51.6569C58.8631 51.0357 56.3529 49.9835 53.0187 48.4495C50.3437 47.1817 50.4831 46.814 50.4831 46.3576C50.4483 45.995 50.4483 45.6299 50.4831 45.2673V45.2673C51.0283 44.2278 52.7144 41.6288 54.9837 38.3453C59.0153 32.4882 60.955 29.8892 62.1594 28.2031C62.3313 27.957 62.5848 27.78 62.875 27.7034C63.1652 27.6268 63.4732 27.6556 63.7441 27.7847C65.912 28.5074 70.3112 30.3963 72.6185 31.3345H72.72C73.9624 32.0064 73.2778 34.935 73.2651 34.9857Z" fill="#017EFA"/>
<path d="M73.392 34.7575L72.1243 36.9381L67.2813 44.1771L62.2102 51.2386C62.058 51.4592 61.8398 51.6258 61.587 51.7146C61.3342 51.8035 61.0597 51.8099 60.803 51.733L60.4734 51.6189C58.7999 50.9977 56.2897 49.9454 52.9555 48.4114C50.2804 47.1437 50.4199 46.776 50.4199 46.3196C50.3851 45.957 50.3851 45.5919 50.4199 45.2293V45.2293C52.9555 46.3449 60.9805 50.1483 61.2467 50.0088C61.8806 49.7046 67.3194 40.9823 70.2099 36.5324C71.6552 34.3138 72.3017 33.3756 72.7455 32.6149C72.8269 32.5242 72.8876 32.4168 72.9232 32.3002C72.9589 32.1835 72.9686 32.0605 72.9516 31.9398C72.9347 31.819 72.8916 31.7034 72.8254 31.601C72.7591 31.4986 72.6712 31.412 72.568 31.3472H72.4665C72.7512 31.4973 72.9969 31.7119 73.184 31.9739C73.3711 32.2358 73.4944 32.5378 73.5442 32.8558C73.6824 33.1596 73.741 33.4936 73.7144 33.8264C73.6877 34.1591 73.5768 34.4795 73.392 34.7575V34.7575Z" fill="#017EFA"/>
<path opacity="0.1" d="M73.392 34.7575L72.1243 36.9381L67.2813 44.1771L62.2102 51.2386C62.058 51.4592 61.8398 51.6258 61.587 51.7146C61.3342 51.8035 61.0597 51.8099 60.803 51.733L60.4734 51.6189C58.7999 50.9977 56.2897 49.9454 52.9555 48.4114C50.2804 47.1437 50.4199 46.776 50.4199 46.3196C50.3851 45.957 50.3851 45.5919 50.4199 45.2293V45.2293C52.9555 46.3449 60.9805 50.1483 61.2467 50.0088C61.8806 49.7046 67.3194 40.9823 70.2099 36.5324C71.6552 34.3138 72.3017 33.3756 72.7455 32.6149C72.8269 32.5242 72.8876 32.4168 72.9232 32.3002C72.9589 32.1835 72.9686 32.0605 72.9516 31.9398C72.9347 31.819 72.8916 31.7034 72.8254 31.601C72.7591 31.4986 72.6712 31.412 72.568 31.3472H72.4665C72.7512 31.4973 72.9969 31.7119 73.184 31.9739C73.3711 32.2358 73.4944 32.5378 73.5442 32.8558C73.6824 33.1596 73.741 33.4936 73.7144 33.8264C73.6877 34.1591 73.5768 34.4795 73.392 34.7575V34.7575Z" fill="black"/>
<path d="M62.2228 29.8638L71.1226 33.591L61.6396 47.6887L52.7905 43.6191L62.2228 29.8638Z" fill="#FAFAFA"/>
<path d="M59.7253 78.9902C62.1594 78.2929 65.836 69.241 68.5997 58.972C71.3635 48.703 72.8214 46.4337 72.9102 43.2008C72.9989 39.968 72.7707 35.7209 72.7707 35.7209L67.9532 42.7571C67.7442 41.3996 67.316 40.0851 66.6854 38.865C66.0642 37.5973 64.8978 36.5957 63.947 37.3564C63.4399 37.7621 64.7837 39.4989 64.4922 43.3783C64.4683 44.9247 64.6215 46.4688 64.9486 47.9803L55.998 69.6593L59.7253 78.9902Z" fill="#FFA8A7"/>
<path d="M23.7077 34.0347C20.8806 33.236 18.4845 34.7447 17.1533 39.2453C14.8199 47.719 13.1247 56.3556 12.0822 65.0826C11.7019 68.214 11.2708 72.0173 14.2628 72.3089C16.5448 72.5371 23.1372 71.2694 24.2909 70.1284C25.8376 68.6324 25.5587 62.5978 25.5587 62.5978H22.1357C22.1357 62.5978 22.871 57.8436 23.0865 56.3984C23.8472 51.5428 24.9755 45.4194 24.9755 45.4194L23.7077 34.0347Z" fill="#F28F8F"/>
<path d="M40.3027 29.5849L39.149 39.7398L29.1336 40.9062L30.5789 27.4297L40.3027 29.5849Z" fill="#FFA8A7"/>
<path d="M18.8651 14.7645C19.6891 5.383 24.7729 1.52895 28.703 0.590791C36.6393 -1.27284 44.4742 1.38949 47.7197 6.92968C48.4625 8.66447 48.8455 10.532 48.8455 12.4192C48.8455 14.3063 48.4625 16.1738 47.7197 17.9086C45.9955 21.8387 18.9031 14.7392 18.9031 14.7392" fill="#263238"/>
<path d="M48.2137 19.8103C48.2137 19.8103 49.6463 23.677 49.266 23.9686C48.6681 24.1841 48.0378 24.2956 47.4023 24.2982L48.2137 19.8103Z" fill="#FFA8A7"/>
<path d="M43.9417 7.5888C45.8307 9.21156 49.0128 12.1528 48.1634 20.2666C47.2252 28.6593 45.1968 30.9286 43.8276 31.74C42.9148 32.2851 38.8706 31.3343 36.9943 30.2313C34.6616 28.8494 29.489 25.287 27.917 20.4821C26.0534 14.8278 26.9915 8.08324 31.0738 6.32103C33.1509 5.42736 35.4208 5.07492 37.6711 5.29663C39.9215 5.51834 42.0789 6.30696 43.9417 7.5888Z" fill="#FFA8A7"/>
<path d="M46.2742 7.80434C46.3147 10.0481 45.8491 12.2721 44.9119 14.3111C43.9747 16.3501 42.59 18.1517 40.8608 19.582C40.8608 19.582 39.6817 16.5267 37.0575 17.2239C34.4332 17.9212 34.5219 21.3822 36.3982 23.2586C36.8847 23.7948 37.5141 24.1811 38.2125 24.372C38.911 24.5629 39.6494 24.5505 40.341 24.3362C39.9669 26.7344 38.8442 28.9531 37.1335 30.6751C34.4035 31.3029 31.5518 31.1482 28.9057 30.2288C26.2595 29.3094 23.9263 27.6625 22.1738 25.4772C16.38 18.5171 18.0915 7.46205 27.1434 4.20386C30.344 2.91956 33.8448 2.57612 37.2339 3.21397C40.623 3.85182 43.7595 5.4444 46.2742 7.80434V7.80434Z" fill="#263238"/>
<path d="M27.9293 182.365L32.2525 188.374C30.2832 189.265 28.1377 189.698 25.977 189.642C22.1102 189.794 21.0453 188.526 20.9058 188.222C20.2466 186.815 21.2735 184.292 21.5524 182.124L27.9293 182.365Z" fill="#263238"/>
<path d="M31.9863 185.471C31.9863 185.471 37.2222 185.128 40.8608 184.672C44.4993 184.216 47.3518 185.94 46.5024 187.474C45.6529 189.008 43.6499 190.212 40.5438 191.277C37.8942 192.177 34.6994 192.824 31.9229 193.648C29.1465 194.472 27.2575 195.486 25.6474 194.916C23.8472 194.294 23.1119 193.572 23.226 192.266C23.6187 190.404 24.1053 188.564 24.6839 186.751L31.9863 185.471Z" fill="#263238"/>
<path d="M20.9061 176.305C20.9061 176.305 21.5526 181.756 21.6033 182.935C21.654 184.114 26.928 184.482 27.9422 182.339L28.107 175.671L20.9061 176.305Z" fill="#F28F8F"/>
<path d="M26.218 179.664L24.3797 187.943C24.3797 187.943 24.1896 188.944 28.5127 189.591C32.8358 190.238 39.5804 187.334 40.734 186.751C41.8877 186.168 42.0018 184.989 37.7801 185.217C33.5584 185.445 32.0498 185.471 32.0498 185.471L33.4317 181.794L26.218 179.664Z" fill="#FFA8A7"/>
<path d="M20.9059 68.8352C17.2928 74.4515 13.8698 79.3958 13.1344 85.7093C11.5878 99.0463 16.6589 114.285 17.7365 124.148C15.6865 126.955 14.5012 130.3 14.3262 133.771C14.3262 137.853 20.9059 176.305 20.9059 176.305C20.9059 176.305 25.6854 177.763 28.0942 175.671L32.6202 104.929L30.2368 96.3206L20.9059 68.8352Z" fill="#455A64"/>
<path d="M32.6203 104.929L30.2369 96.3206C25.7511 95.1542 21.4221 93.4515 17.3436 91.2495C17.3436 91.2495 19.7904 95.6867 26.7758 98.1208L30.4144 109.189L30.7313 134.544L32.6203 104.929Z" fill="#37474F"/>
<path d="M20.9059 68.8352C18.9788 71.9793 14.3515 77.38 15.3403 82.5525C16.532 88.8914 19.9043 93.2399 30.2367 96.3206L39.9225 131.4C39.9225 131.4 34.8514 136.129 33.3428 140.617C31.8341 145.105 26.2178 179.664 26.2178 179.664C26.2178 179.664 27.942 182.479 33.3935 181.794C33.3935 181.794 52.4101 138.449 53.6779 135.66C55.3 132.805 55.8697 129.472 55.288 126.24C54.6794 121.702 48.2138 71.9793 48.2138 71.9793L20.9059 68.8352Z" fill="#455A64"/>
<path d="M19.1437 37.179C19.5323 36.1447 20.2646 35.2755 21.2178 34.7169C22.1711 34.1584 23.2874 33.9444 24.3796 34.111C31.1368 35.9492 41.6467 38.3707 43.6371 38.9539C43.6371 38.9539 42.737 51.9739 50.5211 56.5633C50.1535 59.4665 48.1758 71.9795 48.1758 71.9795C48.1758 71.9795 38.8196 76.5181 31.1242 74.2868C23.4287 72.0555 20.8425 68.8354 20.8425 68.8354L24.6458 62.5599C23.8218 60.5188 20.6396 53.584 18.5858 47.1437C17.8732 43.8323 18.0659 40.3901 19.1437 37.179Z" fill="#FAFAFA"/>
<path d="M23.7079 60.0876C26.9087 62.0129 30.2627 63.6709 33.7361 65.0447C30.5792 64.963 27.4932 64.0913 24.7602 62.5091L23.7079 60.0876Z" fill="#E0E0E0"/>
<path d="M50.3564 55.587C47.591 54.3195 45.316 52.1824 43.8781 49.5017C44.1112 51.5614 44.8173 53.5392 45.9411 55.281C47.0648 57.0227 48.5759 58.4811 50.3564 59.5425V55.587Z" fill="#E0E0E0"/>
<path d="M43.7008 38.9539C47.9479 40.2216 50.5848 40.6273 52.8795 42.6811C55.8968 45.3942 59.0156 60.7343 59.6494 63.9037C60.7524 69.3932 61.9695 75.0982 60.7778 77.6591C59.9157 79.51 55.2249 80.8919 53.1711 74.908C52.7401 73.6402 52.6513 73.0571 52.271 71.9161C50.3313 66.1857 47.4154 55.2321 47.4154 55.2321C47.4154 55.2321 41.6724 52.0627 43.7008 38.9539Z" fill="#FFA8A7"/>
<path d="M23.1118 4.2041C21.6031 5.07887 18.8774 5.92828 17.1786 13.8519C15.7956 20.4989 14.9728 27.2503 14.7191 34.0349C14.7825 36.4944 19.879 43.3277 30.6297 42.6811C41.3805 42.0346 45.2852 35.7337 45.2852 35.7337C45.2852 35.7337 39.9986 33.5785 40.417 24.3237C40.417 24.3237 38.5533 27.9876 33.4442 26.1493C28.335 24.311 23.1118 4.2041 23.1118 4.2041Z" fill="#263238"/>
</svg>
