<svg width="76" height="221" viewBox="0 0 76 221" fill="none" xmlns="http://www.w3.org/2000/svg">
<path d="M35.764 220.149C55.5159 220.149 71.528 212.515 71.528 203.098C71.528 193.68 55.5159 186.046 35.764 186.046C16.0121 186.046 0 193.68 0 203.098C0 212.515 16.0121 220.149 35.764 220.149Z" fill="#E6E6E6"/>
<path d="M12.006 75.1286C12.0694 74.3046 13.6288 65.4301 14.6937 60.4604L25.1275 63.6553L23.454 70.6154L14.7824 79.008C13.9088 78.8439 13.1324 78.3487 12.6151 77.6259C12.0978 76.9031 11.8796 76.0085 12.006 75.1286V75.1286Z" fill="#FFA8A7"/>
<path d="M34.8765 0H39.9476C43.6899 0 47.2789 1.48662 49.9251 4.13283C52.5713 6.77904 54.058 10.368 54.058 14.1103V50.0645H20.7661V14.1103C20.7661 10.368 22.2528 6.77904 24.899 4.13283C27.5452 1.48662 31.1342 0 34.8765 0Z" fill="#263238"/>
<path d="M62.4763 56.4795L67.4079 65.5187L59.7252 72.0858L52.7017 60.9421L62.4763 56.4795Z" fill="#F28F8F"/>
<path d="M43.9667 36.3218C48.8603 36.3218 54.2484 38.1473 56.0993 41.9887L63.706 57.7599C63.706 57.7599 59.3828 64.0988 52.5242 63.655L43.9667 36.3218Z" fill="#455A64"/>
<path d="M47.9222 192.727C49.6062 194.98 51.4994 197.069 53.5765 198.965C53.9099 199.233 54.175 199.576 54.3498 199.966C54.5653 200.626 54.8442 202.21 51.9157 202.857C50.4311 203.183 48.8939 203.185 47.4085 202.863C45.9232 202.541 44.5244 201.904 43.3075 200.993C41.1649 199.269 41.4185 196.239 39.4408 194.249C37.9701 192.791 35.9797 192.22 34.8767 190.445C34.1034 189.178 34.5218 187.669 35.2191 185.805C35.9163 183.942 36.4108 182.243 37.0827 182.484L36.8545 183.422C37.5518 184.905 41.9256 185.843 44.0681 185.133C45.2211 187.73 46.5075 190.264 47.9222 192.727Z" fill="#263238"/>
<path d="M49.646 194.908C49.0502 194.211 48.467 193.501 47.9219 192.727C46.8006 190.861 45.7971 188.926 44.9173 186.934C44.3458 185.747 44.2461 184.388 44.6384 183.13L46.0836 178.249L38.4769 176.5L36.8288 183.333C36.4739 184.892 37.6022 186.439 39.6686 188.696C41.7351 190.952 44.1185 195.922 46.0075 197.329C47.8965 198.737 49.4432 198.876 50.4067 198.394C51.3702 197.913 51.6111 197.469 49.646 194.908Z" fill="#FFA8A7"/>
<path d="M27.4602 197.025V195.948C27.8912 197.215 29.8436 202.616 32.8102 205.329C35.181 207.472 38.4011 209.969 39.2125 212.365C40.0239 214.761 34.7372 215.699 32.5313 215.306C29.5877 214.813 26.8881 213.365 24.8486 211.186C23.5808 209.627 22.7694 207.776 21.8566 206.546C20.9438 205.316 18.8647 204.011 18.3829 202.54C18.2304 201.215 18.3732 199.873 18.8013 198.61C19.1563 197.342 19.5239 195.833 19.9803 195.948V196.835C21.0656 197.68 22.4081 198.128 23.7837 198.103C24.8232 198.103 27.4729 197.862 27.4602 197.025Z" fill="#263238"/>
<path d="M34.9527 207.218L32.8101 205.316C30.8231 203.211 29.2721 200.734 28.2462 198.027C27.7269 196.777 27.4598 195.437 27.4601 194.084V189.812H19.9802V196.759V196.949C20.3352 198.508 23.7836 202.641 25.7233 205.342C27.3139 207.662 29.7392 209.279 32.4932 209.855C35.3457 210.235 36.829 209.348 34.9527 207.218Z" fill="#FFA8A7"/>
<path d="M21.4636 80.6941C15.6698 93.3718 21.6791 138.01 21.6791 138.01C21.5016 140.077 19.1435 144.121 18.2814 153.224C17.2419 163.924 19.9042 190.775 19.9042 190.775C21.0494 191.447 22.3426 191.827 23.6694 191.88C24.9962 191.933 26.3157 191.658 27.5109 191.079C27.5109 191.079 34.6484 150.625 35.9923 139.988L40.2774 105.859L46.6163 139.164C44.9201 141.774 43.5171 144.563 42.4326 147.481C40.924 152.184 37.8686 178.985 37.8686 178.985C38.8995 179.927 40.1322 180.622 41.4725 181.015C42.8128 181.408 44.2253 181.49 45.6021 181.254C45.6021 181.254 60.2449 144.489 60.9041 136.983C61.2971 132.483 54.73 78.8938 54.73 78.8938L21.4636 80.6941Z" fill="#37474F"/>
<path d="M40.2267 105.809L41.241 98.481C41.241 98.481 49.2153 96.8329 52.8285 93.4099C50.3335 96.3345 47.071 98.5036 43.4089 99.6727L42.344 106.747L43.6117 123.139L40.2267 105.809Z" fill="#263238"/>
<path d="M31.7582 36.6641C29.6235 37.1833 27.6324 38.175 25.932 39.5661C24.2315 40.9572 22.8649 42.7122 21.933 44.7018C20.5641 47.7268 20.4367 51.1681 21.578 54.2862L26.6871 69.284C26.6871 69.284 24.2657 75.1538 21.4385 80.694C34.4586 87.9583 50.6988 84.1423 54.6163 78.843C54.7811 77.7147 54.5529 72.6436 54.8698 66.8879C55.1995 60.7391 56.0488 53.7917 55.0853 50.0011C53.2851 42.9395 49.9255 36.3218 43.2443 36.3218L31.7582 36.6641Z" fill="#455A64"/>
<path d="M29.7674 36.6643C25.3302 37.2855 18.8139 38.1856 16.5572 48.7335C14.3006 59.2814 13.6287 63.1481 13.6287 63.1481C15.0755 64.5679 16.7993 65.6744 18.6925 66.3985C20.5858 67.1227 22.608 67.449 24.633 67.3572L26.9276 59.2434L29.7674 36.6643Z" fill="#455A64"/>
<path d="M32.2906 45.5639C31.5248 45.5639 30.7665 45.413 30.0589 45.12C29.3514 44.8269 28.7085 44.3974 28.1669 43.8558C27.6254 43.3143 27.1959 42.6714 26.9028 41.9638C26.6097 41.2563 26.4589 40.4979 26.4589 39.7321V22.7566H32.2906V45.5639Z" fill="#263238"/>
<path d="M48.5941 6.73169C50.3563 7.77127 52.5242 12.1958 52.3087 21.4633C52.1312 29.3235 49.583 31.2759 48.3025 31.8337C47.0221 32.3915 44.5626 32.0492 42.1665 31.6435V36.3597C42.1665 36.3597 45.4754 40.163 45.2725 42.3816C45.0697 44.6002 40.4803 45.0566 37.3743 42.9394C35.3736 41.4883 33.655 39.6837 32.3032 37.6147V26.2047C32.0506 26.5139 31.7393 26.7698 31.3872 26.9578C31.035 27.1457 30.6491 27.2619 30.2517 27.2997C29.8543 27.3374 29.4534 27.2959 29.0722 27.1776C28.6909 27.0593 28.337 26.8665 28.0308 26.6104C25.3811 24.8482 25.2797 20.4997 26.8264 19.0038C28.3731 17.5078 31.682 17.9388 32.3032 20.0941C35.4364 19.9566 38.4861 19.0416 41.1776 17.4317C43.173 16.3632 44.886 14.8358 46.1754 12.9755C47.4648 11.1152 48.2938 8.97517 48.5941 6.73169V6.73169Z" fill="#FFA8A7"/>
<path d="M43.5355 19.4984C43.5378 19.6923 43.4829 19.8825 43.3779 20.0455C43.2728 20.2085 43.1222 20.337 42.9447 20.415C42.7672 20.4931 42.5706 20.5172 42.3795 20.4844C42.1884 20.4516 42.0111 20.3634 41.8698 20.2306C41.7284 20.0979 41.6293 19.9266 41.5845 19.7379C41.5398 19.5492 41.5515 19.3516 41.6182 19.1695C41.685 18.9874 41.8037 18.829 41.9598 18.7139C42.1158 18.5988 42.3023 18.5322 42.4959 18.5222C42.6285 18.5171 42.7608 18.5384 42.8851 18.5849C43.0094 18.6314 43.1231 18.7021 43.2199 18.7929C43.3166 18.8837 43.3943 18.9929 43.4485 19.114C43.5027 19.2351 43.5323 19.3658 43.5355 19.4984V19.4984Z" fill="#263238"/>
<path d="M43.8018 26.1543L46.0965 26.8896C46.0559 27.0441 45.9842 27.1886 45.886 27.3146C45.7878 27.4405 45.665 27.5452 45.5251 27.6223C45.3852 27.6994 45.2312 27.7472 45.0722 27.7629C44.9133 27.7786 44.7528 27.7619 44.6005 27.7137C44.2923 27.6065 44.0373 27.3846 43.8885 27.0941C43.7397 26.8037 43.7087 26.4671 43.8018 26.1543V26.1543Z" fill="#F28F8F"/>
<path d="M51.6366 16.4557L49.6462 15.0738C49.7297 14.9388 49.8398 14.8222 49.9699 14.7312C50.1 14.6402 50.2473 14.5768 50.4028 14.5448C50.5583 14.5127 50.7187 14.5127 50.8742 14.5448C51.0297 14.577 51.1769 14.6405 51.307 14.7315C51.5738 14.9208 51.757 15.206 51.8185 15.5273C51.8799 15.8486 51.8147 16.1813 51.6366 16.4557V16.4557Z" fill="#263238"/>
<path d="M51.1803 18.7756C51.1977 19.0427 51.1089 19.3058 50.9332 19.5077C50.7574 19.7095 50.509 19.8337 50.2421 19.8532C49.9761 19.8568 49.7191 19.7571 49.5252 19.575C49.3313 19.393 49.2156 19.1427 49.2025 18.8771C49.1959 18.7472 49.2149 18.6173 49.2584 18.4948C49.3019 18.3723 49.3692 18.2595 49.4563 18.163C49.5434 18.0664 49.6487 17.988 49.7661 17.9322C49.8835 17.8763 50.0108 17.8441 50.1407 17.8375C50.2705 17.8308 50.4004 17.8498 50.523 17.8933C50.6455 17.9369 50.7582 18.0041 50.8548 18.0913C50.9513 18.1784 51.0297 18.2836 51.0856 18.4011C51.1414 18.5185 51.1736 18.6458 51.1803 18.7756V18.7756Z" fill="#263238"/>
<path d="M46.5151 18.218L46.6799 24.1639L49.8113 23.1877L46.5151 18.218Z" fill="#F28F8F"/>
<path d="M42.1665 31.6436C39.631 31.3139 34.4331 29.818 33.6217 27.7642C33.9448 28.8064 34.5825 29.723 35.4473 30.3884C36.994 31.7196 42.1665 33.2283 42.1665 33.2283V31.6436Z" fill="#F28F8F"/>
<path d="M62.0833 66.9134C63.5159 64.251 63.8709 64.1369 64.733 63.5538C65.5951 62.9706 70.8056 62.1846 72.9735 61.9944C75.5091 61.7789 76.4345 62.2479 75.7246 64.4539C73.7479 69.98 71.3402 75.3423 68.5236 80.4913C67.839 81.4041 67.6996 82.2408 64.8344 82.5197C61.9692 82.7986 58.7871 82.9254 57.7982 82.9888C56.8094 83.0522 55.4402 83.2931 56.3276 80.3772C57.4579 77.0845 58.7657 73.8554 60.245 70.704C61.3987 68.3079 62.0833 66.9134 62.0833 66.9134Z" fill="#017EFA"/>
<path d="M23.4541 70.6658C23.4541 70.6658 46.6417 73.1126 49.6463 72.1871C52.651 71.2616 56.6825 68.257 58.8504 67.0146C61.0183 65.7722 62.5777 65.6707 62.5777 66.1778C62.5777 66.685 60.7267 69.5375 60.2957 70.7038C59.8646 71.8702 62.2988 71.8828 65.4682 71.1475C68.6376 70.4122 69.9181 68.612 70.7549 69.6515C71.5916 70.6911 68.9926 75.9904 63.7187 77.9808C58.4447 79.9713 54.5273 78.6528 50.1661 78.8303C45.805 79.0078 20.8298 80.9601 14.7825 79.0585C14.6225 78.0892 14.7332 77.0946 15.1023 76.1841C15.4714 75.2737 16.0846 74.4829 16.8743 73.8986C18.8297 72.3925 21.067 71.2933 23.4541 70.6658Z" fill="#FFA8A7"/>
<path d="M25.1274 64.7074C26.1223 62.0131 26.9687 59.2664 27.6629 56.4795C27.6629 56.4795 27.2446 62.6028 25.5204 65.8864L25.1274 64.7074Z" fill="#37474F"/>
</svg>
