<svg width="79" height="201" viewBox="0 0 79 201" fill="none" xmlns="http://www.w3.org/2000/svg">
<path d="M37.4882 200.986C58.1923 200.986 74.9764 192.988 74.9764 183.123C74.9764 173.258 58.1923 165.26 37.4882 165.26C16.784 165.26 0 173.258 0 183.123C0 192.988 16.784 200.986 37.4882 200.986Z" fill="#E6E6E6"/>
<path d="M65.2911 55.9016L70.2227 64.9409L62.5527 71.5206L55.5165 60.3769L65.2911 55.9016Z" fill="#F28F8F"/>
<path d="M46.7815 35.7566C51.6751 35.7566 57.0632 37.5822 58.9142 41.4236L66.5208 57.1947C66.5208 57.1947 62.1977 63.5336 55.339 63.0772L46.7815 35.7566Z" fill="#E0E0E0"/>
<path d="M64.9105 66.348C66.3431 63.6857 66.698 63.5589 67.5474 62.9757C68.3969 62.3925 73.6201 61.6192 75.788 61.429C78.3235 61.2135 79.249 61.6826 78.5391 63.8758C76.5863 69.4075 74.1953 74.7745 71.3888 79.9259C70.7042 80.826 70.5774 81.6627 67.6996 81.9543C65.0246 82.2079 61.665 82.36 60.6761 82.4107C59.6872 82.4614 58.318 82.7277 59.1928 79.8118C60.3247 76.5179 61.6367 73.2886 63.1229 70.1387C64.2259 67.7172 64.9105 66.348 64.9105 66.348Z" fill="#017EFA"/>
<path d="M7.78458 156.043C6.5168 155.409 5.79416 156.956 4.6912 158.198C3.74395 159.112 3.00457 160.219 2.52331 161.444C2.25708 162.902 3.58824 165.247 5.05886 166.515C6.52949 167.783 8.22829 168.708 8.76075 171.497C8.89803 172.777 9.39469 173.992 10.1933 175.002C10.992 176.011 12.0601 176.774 13.274 177.202C16.4435 178.572 20.6905 178.128 22.1485 177.202C23.8473 176.099 22.2879 174.882 19.9045 171.459C16.7858 166.997 14.3517 163.853 14.3517 159.631L7.78458 156.043Z" fill="#263238"/>
<path d="M10.282 152.379L7.74646 156.183C7.19933 156.96 6.98282 157.922 7.14445 158.859C7.30607 159.795 7.83261 160.629 8.60854 161.178L8.6846 161.241C9.46441 161.704 10.3814 161.88 11.2771 161.739C12.1729 161.598 12.9913 161.148 13.5909 160.468L17.5971 156.107L10.282 152.379Z" fill="#FFA8A7"/>
<path d="M57.3673 79.0513C57.5321 83.8435 56.1756 103.202 52.8667 111.76C49.5578 120.317 47.6434 125.642 46.6038 127.43C45.5643 129.217 15.5686 158.401 15.5686 158.401C15.5686 158.401 10.4975 158.034 9.67349 153.102C9.67349 153.102 21.9583 132.209 24.6206 127.924C27.2829 123.639 36.7152 117.072 36.7152 117.072L35.8531 79.5964L57.3673 79.0513Z" fill="#37474F"/>
<path d="M12.9315 74.3857C12.9315 73.5616 15.4671 64.0914 16.7348 59.7175L26.0276 62.9123L23.8471 69.809L15.6699 78.2651C14.8034 78.0924 14.0361 77.5937 13.5266 76.8718C13.017 76.15 12.804 75.26 12.9315 74.3857V74.3857Z" fill="#FFA8A7"/>
<path d="M50.7593 181.04L57.1012 179.598L55.0014 170.363L48.6596 171.805L50.7593 181.04Z" fill="#FFA8A7"/>
<path d="M57.3675 79.0512H26.9409C26.2762 83.4935 25.8951 87.9736 25.7999 92.4643C25.559 105.649 37.8311 129.598 37.8311 129.598C37.2422 134.926 37.5076 140.314 38.6171 145.559C41.3048 156.056 48.6326 173.843 48.6326 173.843C48.6326 173.843 53.2346 174.49 55.5039 171.84C55.5039 171.84 51.447 135.746 50.3567 126.504C49.1777 116.489 46.135 98.22 46.135 98.22C48.1434 96.2188 49.9639 94.0375 51.5738 91.7036C54.3959 87.9461 56.3684 83.6205 57.3549 79.0259" fill="#37474F"/>
<path d="M36.7406 36.0228C30.9089 37.43 22.9599 39.2556 20.6652 45.5691C18.3706 51.8827 15.0616 63.0771 15.0616 63.0771C16.3294 65.2957 23.3656 67.134 25.8124 65.8536L26.9534 62.0502V79.0131C31.5174 83.9828 47.4153 86.2901 57.3801 79.0131V47.3187C57.3801 42.2476 54.5656 36.1622 46.7941 35.7185L36.7406 36.0228Z" fill="#EBEBEB"/>
<path d="M26.9531 62.0883L29.8817 52.8716L26.9531 66.2086V62.0883Z" fill="#E0E0E0"/>
<path d="M34.5474 10.1222C34.0242 10.064 33.4947 10.125 32.9984 10.3007C32.5022 10.4763 32.0523 10.762 31.6822 11.1364C30.4145 12.4042 30.706 14.7242 31.6822 20.0869L35.4856 20.518L34.5474 10.1222Z" fill="#263238"/>
<path d="M56.746 8.57524C57.5453 8.58362 58.3383 8.43277 59.0787 8.13151C60.2451 7.45959 60.5493 8.79075 59.9028 9.94442C59.4804 10.7711 58.853 11.4757 58.0806 11.9907C57.3081 12.5056 56.4165 12.8138 55.4909 12.8857C55.4909 12.7209 54.4006 9.90639 54.4006 9.90639L56.746 8.57524Z" fill="#263238"/>
<path d="M36.3349 20.5179C35.7771 20.8602 34.9657 19.7699 34.2684 19.0473C33.9957 18.7323 33.647 18.4922 33.2554 18.3498C32.8639 18.2073 32.4425 18.1672 32.0311 18.2332C31.6197 18.2992 31.232 18.4692 30.9047 18.7271C30.5774 18.9849 30.3213 19.322 30.1608 19.7065C29.0072 22.1407 31.6315 25.3862 33.1781 26.4511C33.6069 26.8261 34.1436 27.0552 34.711 27.1053C35.2784 27.1554 35.8471 27.024 36.3349 26.73L36.7406 36.0482C37.424 37.5407 38.4655 38.8414 39.7727 39.8344C41.0798 40.8275 42.612 41.4822 44.2332 41.7405C49.71 42.4758 48.5816 37.9372 46.7687 35.7566V32.3716C48.1394 32.661 49.5474 32.7295 50.9397 32.5745C51.6496 32.3843 53.3485 30.3305 54.4514 28.0231C56.7903 23.4032 57.3106 18.0738 55.9094 13.0887C53.9443 4.74676 44.9812 4.4932 39.6438 7.85281C34.3065 11.2124 36.3349 20.5179 36.3349 20.5179Z" fill="#FFA8A7"/>
<path d="M36.335 21.4688C36.0561 21.4688 34.9785 19.6812 34.2686 19.0473C33.2924 18.1599 34.5475 10.1729 34.5475 10.1729C34.2783 9.31442 34.2242 8.40295 34.39 7.51867C34.5558 6.63439 34.9364 5.80441 35.4983 5.10178C37.4253 3.07334 41.1526 3.41564 43.8783 3.3269C47.2318 3.34007 50.553 2.67152 53.6402 1.36184C57.5196 -0.324302 57.8112 -0.514468 58.2803 1.18435C58.6551 2.58828 58.7014 4.0597 58.4156 5.48442C58.1298 6.90914 57.5195 8.24884 56.6322 9.39954L55.3644 11.4533C55.3644 11.4533 54.1854 12.4422 50.5722 12.8859C46.959 13.3297 40.7976 11.3773 40.0243 11.2758C38.972 11.1364 38.7565 12.1506 38.186 14.9271C37.7042 17.3232 37.2985 21.4561 36.335 21.4688Z" fill="#263238"/>
<path d="M34.5599 10.756L31.1369 8.91769C31.2463 8.69417 31.3988 8.49447 31.5856 8.33006C31.7724 8.16565 31.9899 8.03977 32.2255 7.95967C32.4611 7.87956 32.7102 7.84681 32.9586 7.86327C33.2069 7.87974 33.4495 7.9451 33.6725 8.05562C34.1424 8.30208 34.4978 8.72184 34.6635 9.22593C34.8292 9.73002 34.792 10.2788 34.5599 10.756V10.756Z" fill="#263238"/>
<path d="M46.7689 32.3716C44.4365 31.9244 42.1493 31.2667 39.9356 30.4066C38.8986 29.859 38.0472 29.0163 37.4888 27.9851C37.7564 29.0203 38.2308 29.9906 38.8834 30.8376C40.1511 32.4984 46.7689 33.7154 46.7689 33.7154V32.3716Z" fill="#F28F8F"/>
<path d="M46.9335 20.3406C46.9369 20.6141 46.8324 20.878 46.6425 21.075C46.4526 21.272 46.1928 21.3862 45.9193 21.3928C45.7827 21.3896 45.6482 21.3594 45.5233 21.3041C45.3985 21.2488 45.2857 21.1694 45.1915 21.0705C45.0973 20.9716 45.0236 20.8551 44.9744 20.7277C44.9253 20.6003 44.9017 20.4644 44.9051 20.3279C44.9017 20.0543 45.0062 19.7904 45.1961 19.5935C45.3859 19.3965 45.6458 19.2823 45.9193 19.2756C46.0558 19.2789 46.1904 19.3091 46.3152 19.3644C46.4401 19.4197 46.5528 19.4991 46.647 19.598C46.7412 19.6969 46.815 19.8133 46.8642 19.9408C46.9133 20.0682 46.9369 20.2041 46.9335 20.3406V20.3406Z" fill="#263238"/>
<path d="M45.8559 16.4991L43.6879 17.7669C43.6056 17.6199 43.5535 17.458 43.5344 17.2906C43.5154 17.1232 43.5299 16.9537 43.5771 16.792C43.6243 16.6303 43.7033 16.4797 43.8094 16.3488C43.9155 16.218 44.0466 16.1096 44.1951 16.03C44.48 15.8841 44.8095 15.8514 45.1176 15.9384C45.4257 16.0254 45.6894 16.2257 45.8559 16.4991Z" fill="#263238"/>
<path d="M46.3124 27.1484L48.6325 28.0232C48.5179 28.3273 48.2908 28.5758 47.9983 28.7174C47.7057 28.8589 47.37 28.8827 47.0604 28.7839C46.9036 28.726 46.7598 28.6378 46.6372 28.5241C46.5146 28.4105 46.4157 28.2737 46.3462 28.1217C46.2767 27.9697 46.2379 27.8055 46.2321 27.6385C46.2263 27.4714 46.2536 27.3049 46.3124 27.1484V27.1484Z" fill="#F28F8F"/>
<path d="M55.9856 17.3485L54.0079 15.8272C54.2066 15.5705 54.4961 15.3998 54.8169 15.3503C55.1376 15.3008 55.4652 15.3762 55.732 15.5609C55.867 15.6609 55.9808 15.7867 56.0668 15.9311C56.1527 16.0754 56.2091 16.2353 56.2327 16.4017C56.2563 16.568 56.2466 16.7374 56.2042 16.8999C56.1618 17.0624 56.0875 17.2149 55.9856 17.3485V17.3485Z" fill="#263238"/>
<path d="M55.3771 20.0488C55.3805 20.3224 55.276 20.5863 55.0861 20.7833C54.8962 20.9802 54.6364 21.0944 54.3629 21.1011C54.2263 21.0978 54.0918 21.0676 53.9669 21.0123C53.8421 20.957 53.7293 20.8776 53.6351 20.7788C53.5409 20.6799 53.4672 20.5634 53.418 20.4359C53.3689 20.3085 53.3453 20.1727 53.3487 20.0361C53.3453 19.7626 53.4498 19.4987 53.6397 19.3017C53.8295 19.1047 54.0894 18.9905 54.3629 18.9839C54.6375 18.9938 54.8974 19.1108 55.0869 19.3098C55.2764 19.5088 55.3806 19.774 55.3771 20.0488V20.0488Z" fill="#263238"/>
<path d="M50.5975 19.9221L49.6466 25.9567L52.9809 25.5637L50.5975 19.9221Z" fill="#F28F8F"/>
<path d="M56.3783 176.518L56.1755 175.605C56.8347 175.732 59.6872 180.461 62.5144 182.515C65.6077 184.759 68.2828 186.09 69.6646 187.104C71.5156 188.46 68.8406 191.237 64.2892 191.49C62.0326 191.605 57.9503 190.92 56.6826 189.716C55.4148 188.511 54.502 186.521 53.4878 185.659C52.4736 184.797 50.4578 184.036 49.7605 182.933C49.3874 181.837 49.2534 180.674 49.3675 179.523C49.3675 178.331 49.4563 176.987 49.862 177.05L50.0141 177.735C51.1897 178.335 52.4982 178.627 53.8174 178.585C54.9204 178.534 56.9108 178.293 56.3783 176.518Z" fill="#263238"/>
<path d="M49.5704 120.368C49.5704 120.368 46.87 101.186 46.1473 98.2199C48.3166 97.0352 50.3344 95.5921 52.1566 93.9221C50.8995 95.7203 49.5274 97.4354 48.049 99.0566L49.5704 120.368Z" fill="#263238"/>
<path d="M33.2793 119.696C33.2793 119.696 36.5248 127.772 37.8433 129.56C37.8433 129.56 37.5137 135.721 37.5517 136.963L35.8529 138.447C35.8086 135.659 36.0637 132.876 36.6136 130.143C35.1232 126.793 34.0051 123.29 33.2793 119.696Z" fill="#263238"/>
<path d="M23.8852 69.8092C23.8852 69.8092 49.4562 72.5476 52.4609 71.6221C55.4655 70.6967 59.497 67.7174 61.6142 66.4496C63.7314 65.1818 65.3415 65.1058 65.3415 65.6256C65.3415 66.1453 63.4905 68.9725 63.0722 70.1515C62.6538 71.3305 65.0626 71.3306 68.2447 70.5952C71.4268 69.8599 72.6946 68.0597 73.5187 69.0993C74.3427 70.1388 71.7564 75.4382 66.4825 77.4286C61.2085 79.419 57.2911 78.0878 52.93 78.278C48.5688 78.4681 21.7046 80.1796 15.6573 78.278C15.4974 77.3087 15.608 76.3141 15.9771 75.4037C16.3462 74.4933 16.9594 73.7024 17.7491 73.1181C19.5765 71.6515 21.6558 70.5302 23.8852 69.8092V69.8092Z" fill="#FFA8A7"/>
</svg>
