<svg width="151" height="369" viewBox="0 0 151 369" fill="none" xmlns="http://www.w3.org/2000/svg">
<path d="M144.589 10.1873L21.3357 81.3096C19.7383 82.352 18.4089 83.7561 17.4552 85.408C16.5015 87.0599 15.9503 88.9133 15.8462 90.8179V363.631C15.8462 367.13 18.3057 368.55 21.3357 366.8L144.589 295.678C146.186 294.635 147.516 293.231 148.469 291.58C149.423 289.928 149.974 288.074 150.078 286.17V13.3567C150.078 9.85765 147.619 8.43774 144.589 10.1873Z" fill="#37474F"/>
<path d="M21.3359 81.3096L144.589 10.1873C147.302 8.62798 149.546 9.60417 149.99 12.3299C149.74 10.615 149.129 8.97253 148.198 7.51066C147.267 6.0488 146.037 4.80068 144.589 3.84846L140.114 1.31291C138.413 0.449807 136.532 0 134.624 0C132.717 0 130.836 0.449807 129.135 1.31291L5.88171 72.3972C4.26025 73.4086 2.92472 74.8184 2.00232 76.4921L17.4565 85.3665C18.3841 83.7067 19.7192 82.3105 21.3359 81.3096Z" fill="#455A64"/>
<path d="M0.392273 354.706C0.494344 356.611 1.04471 358.465 1.9986 360.117C2.95249 361.769 4.28296 363.173 5.88175 364.214L10.357 366.749C11.904 367.529 13.5989 367.972 15.3298 368.049C17.0606 368.125 18.788 367.834 20.3978 367.193C17.8622 368.169 15.8465 366.711 15.8465 363.58V90.7798C15.91 88.8671 16.4645 87.0029 17.4566 85.3664L2.00236 76.4919C1.01285 78.1296 0.458594 79.9931 0.392273 81.9053V354.706Z" fill="#263238"/>
<path d="M24.2899 115.286L141.635 47.5742C143.448 46.522 144.932 47.3714 144.932 49.4759V256.009C144.867 257.152 144.535 258.263 143.962 259.254C143.39 260.245 142.593 261.088 141.635 261.714L24.2899 329.414C22.477 330.466 20.9937 329.617 20.9937 327.512V120.991C21.0546 119.848 21.385 118.735 21.9578 117.744C22.5307 116.752 23.3298 115.91 24.2899 115.286Z" fill="#FAFAFA"/>
<path d="M81.72 56.3343C81.1593 56.7025 80.6928 57.1971 80.3581 57.7784C80.0234 58.3597 79.8298 59.0115 79.793 59.6813C79.793 60.949 80.6551 61.4181 81.72 60.7969C82.2822 60.4303 82.7498 59.936 83.0846 59.3544C83.4195 58.7727 83.6122 58.1202 83.647 57.45C83.647 56.2202 82.7849 55.7258 81.72 56.3343Z" fill="#263238"/>
<path d="M63.4769 75.9596C62.3634 76.7 61.4392 77.6913 60.7787 78.8539C60.1181 80.0165 59.7396 81.3179 59.6736 82.6535C59.6736 85.113 61.3978 86.1145 63.4769 84.8848C64.6029 84.1522 65.54 83.1641 66.2119 82.0009C66.8838 80.8377 67.2716 79.5323 67.3437 78.1909C67.3437 75.7314 65.6068 74.7299 63.4769 75.9596Z" fill="#263238"/>
<path d="M72.9215 75.123C72.9215 76.7711 74.1893 77.3923 75.6726 76.5175L101.028 61.8493C101.81 61.3566 102.466 60.6868 102.942 59.894C103.417 59.1011 103.7 58.2075 103.767 57.2853C103.767 55.6499 102.499 55.0287 101.028 55.9035L75.6726 70.5716C74.8888 71.0609 74.2313 71.7279 73.7533 72.5187C73.2754 73.3094 72.9904 74.2016 72.9215 75.123Z" fill="#263238"/>
<path d="M8.93722 123.451C9.83901 124.034 10.5896 124.824 11.1273 125.754C11.665 126.684 11.9746 127.728 12.0306 128.801C12.0306 130.766 10.6487 131.564 8.93722 130.588C8.03962 129.998 7.29321 129.205 6.75811 128.274C6.22301 127.342 5.91417 126.298 5.85651 125.226C5.88186 123.26 7.23839 122.474 8.93722 123.451Z" fill="#37474F"/>
<path d="M8.93718 147.247C9.83686 147.833 10.5858 148.623 11.1232 149.552C11.6607 150.482 11.9715 151.525 12.0306 152.597C12.0306 154.575 10.6487 155.373 8.93718 154.384C8.05353 153.8 7.31764 153.018 6.78746 152.101C6.25728 151.183 5.94727 150.155 5.88184 149.098C5.88184 147.069 7.23836 146.271 8.93718 147.247Z" fill="#37474F"/>
<path d="M7.98614 123.92C8.88582 124.506 9.63473 125.296 10.1722 126.225C10.7096 127.155 11.0205 128.198 11.0795 129.27C11.0795 131.247 9.69764 132.046 7.98614 131.057C7.08786 130.47 6.34 129.68 5.80274 128.75C5.26547 127.821 4.95379 126.779 4.89276 125.707C4.89276 123.742 6.28732 122.944 7.98614 123.92Z" fill="#455A64"/>
<path d="M7.98614 147.729C8.88582 148.315 9.63473 149.104 10.1722 150.034C10.7096 150.963 11.0205 152.007 11.0795 153.079C11.0795 155.056 9.69764 155.855 7.98614 154.866C7.08786 154.279 6.34 153.489 5.80274 152.559C5.26547 151.63 4.95379 150.588 4.89276 149.516C4.89276 147.538 6.28732 146.74 7.98614 147.729Z" fill="#455A64"/>
<path d="M82.9627 304.68C80.7467 306.127 78.9031 308.076 77.5814 310.369C76.2598 312.662 75.4973 315.234 75.356 317.877C75.356 322.745 78.7663 324.71 82.9627 322.289C85.179 320.839 87.0225 318.888 88.3441 316.593C89.6656 314.297 90.428 311.723 90.5693 309.079C90.582 304.21 87.1717 302.245 82.9627 304.68Z" fill="#263238"/>
</svg>
