<svg width="59" height="132" viewBox="0 0 59 132" fill="none" xmlns="http://www.w3.org/2000/svg">
<path d="M7.13403 126.911C8.0088 116.401 32.0966 76.9729 39.4623 70.8622C46.8281 64.7515 59.8355 49.31 54.2319 40.537C48.6284 31.764 32.16 35.6687 16.6931 63.0147C4.69991 84.2246 0.972656 131.132 0.972656 131.132L7.13403 126.911Z" fill="#017EFA"/>
<path d="M3.83771 125.922H3.7363C3.65424 125.91 3.57546 125.881 3.50463 125.838C3.4338 125.795 3.37236 125.738 3.32391 125.67C3.27546 125.603 3.24099 125.526 3.22254 125.446C3.2041 125.365 3.20205 125.281 3.21651 125.199C10.0245 81.182 24.4898 53.7219 47.4366 41.247C47.5845 41.1663 47.7584 41.1477 47.9201 41.1953C48.0002 41.2188 48.0748 41.2579 48.1398 41.3103C48.2047 41.3626 48.2587 41.4273 48.2987 41.5006C48.3386 41.5738 48.3638 41.6542 48.3726 41.7372C48.3815 41.8202 48.374 41.9041 48.3504 41.9841C48.3269 42.0642 48.2878 42.1388 48.2354 42.2038C48.183 42.2687 48.1184 42.3227 48.0451 42.3627C25.466 54.6347 11.2162 81.8032 4.45894 125.402C4.43232 125.548 4.35562 125.679 4.24217 125.774C4.12872 125.869 3.98563 125.921 3.83771 125.922Z" fill="white"/>
<path d="M9.55544 75.9207C9.55544 75.9207 28.889 42.5021 44.9011 27.2C53.7755 18.7186 59.2269 13.2544 58.7452 6.83948C58.3902 1.97121 54.346 -0.627726 45.6491 1.51482C28.3185 5.77455 19.0257 23.3333 13.0418 42.9965C8.79478 56.8406 9.55544 75.9207 9.55544 75.9207Z" fill="#017EFA"/>
<path opacity="0.2" d="M9.55544 75.9207C9.55544 75.9207 28.889 42.5021 44.9011 27.2C53.7755 18.7186 59.2269 13.2544 58.7452 6.83948C58.3902 1.97121 54.346 -0.627726 45.6491 1.51482C28.3185 5.77455 19.0257 23.3333 13.0418 42.9965C8.79478 56.8406 9.55544 75.9207 9.55544 75.9207Z" fill="black"/>
<path d="M11.7994 70.4311H11.7107C11.5432 70.403 11.3934 70.3102 11.2937 70.1726C11.1941 70.035 11.1526 69.8637 11.1782 69.6957C18.0623 26.2617 44.2292 9.90739 52.0894 5.92657C52.2391 5.85138 52.4125 5.8385 52.5717 5.89076C52.7308 5.94302 52.8628 6.05617 52.9388 6.20546C52.9778 6.27924 53.0015 6.36012 53.0085 6.44327C53.0156 6.52641 53.0058 6.61013 52.9797 6.68941C52.9537 6.76869 52.912 6.8419 52.857 6.9047C52.8021 6.96749 52.735 7.01857 52.6599 7.05489C44.9392 10.9723 19.2286 27.0477 12.4333 69.8986C12.409 70.0486 12.3317 70.1849 12.2153 70.2826C12.099 70.3803 11.9514 70.433 11.7994 70.4311Z" fill="white"/>
</svg>
