<svg width="47" height="56" viewBox="0 0 47 56" fill="none" xmlns="http://www.w3.org/2000/svg">
<path d="M28.8487 55.2751L24.6651 47.4149L28.0247 37.7037L28.0247 31.7578L17.7303 37.7037L17.7303 43.6496L22.1549 51.3323C22.2238 51.4525 22.3309 51.5462 22.4591 51.5985L28.8487 55.2751Z" fill="#017EFA"/>
<path opacity="0.1" d="M28.8487 55.2751L24.6651 47.4149L28.0247 37.7037L28.0247 31.7578L17.7303 37.7037L17.7303 43.6496L22.1549 51.3323C22.2238 51.4525 22.3309 51.5462 22.4591 51.5985L28.8487 55.2751Z" fill="black"/>
<path d="M4.96383 18.3701L33.3113 1.88898C34.2691 1.40735 35.3263 1.15649 36.3983 1.15649C37.4704 1.15649 38.5276 1.40735 39.4854 1.88898L42.0209 3.34693C42.9227 3.9307 43.6733 4.71995 44.211 5.64994C44.7487 6.57993 45.0583 7.62416 45.1143 8.69695L45.1143 31.6691C45.0553 32.7411 44.7444 33.7842 44.207 34.7138C43.6696 35.6433 42.9206 36.4331 42.0209 37.0191L13.6481 53.5002C12.6903 53.9818 11.6331 54.2327 10.561 54.2327C9.48897 54.2327 8.43178 53.9818 7.474 53.5002L4.93845 52.0422C4.03971 51.4563 3.2922 50.6662 2.75682 49.7365C2.22145 48.8068 1.91338 47.7636 1.85776 46.6922L1.85776 23.6947C1.92309 22.6262 2.23813 21.5878 2.77756 20.663C3.317 19.7383 4.06582 18.9529 4.96383 18.3701Z" fill="#017EFA"/>
<path opacity="0.3" d="M4.96383 18.3701L33.3113 1.88898C34.2691 1.40735 35.3263 1.15649 36.3983 1.15649C37.4704 1.15649 38.5276 1.40735 39.4854 1.88898L42.0209 3.34693C42.9227 3.9307 43.6733 4.71995 44.211 5.64994C44.7487 6.57993 45.0583 7.62416 45.1143 8.69695L45.1143 31.6691C45.0553 32.7411 44.7444 33.7842 44.207 34.7138C43.6696 35.6433 42.9206 36.4331 42.0209 37.0191L13.6481 53.5002C12.6903 53.9818 11.6331 54.2327 10.561 54.2327C9.48897 54.2327 8.43178 53.9818 7.474 53.5002L4.93845 52.0422C4.03971 51.4563 3.2922 50.6662 2.75682 49.7365C2.22145 48.8068 1.91338 47.7636 1.85776 46.6922L1.85776 23.6947C1.92309 22.6262 2.23813 21.5878 2.77756 20.663C3.317 19.7383 4.06582 18.9529 4.96383 18.3701Z" fill="white"/>
<path d="M13.6606 53.4749C11.9491 54.4511 10.5672 53.6651 10.5672 51.6874L10.5672 28.7152C10.6263 27.6432 10.9371 26.6001 11.4746 25.6706C12.012 24.741 12.7609 23.9512 13.6606 23.3652L42.0335 6.88412C43.745 5.89525 45.1268 6.69395 45.1268 8.67168L45.1268 31.6438C45.0678 32.7159 44.7569 33.759 44.2195 34.6885C43.6821 35.618 42.9331 36.4078 42.0335 36.9938" fill="#017EFA"/>
<path d="M1.88315 46.6668C1.93877 47.7382 2.24684 48.7814 2.78221 49.7111C3.31759 50.6408 4.06514 51.4309 4.96388 52.0168L7.49943 53.4748C8.36932 53.9115 9.32193 54.1588 10.2944 54.2003C11.2669 54.2418 12.2371 54.0766 13.141 53.7157C11.6957 54.2735 10.6055 53.4494 10.6055 51.6872L10.6055 28.7151C10.6465 27.6398 10.9607 26.5927 11.5183 25.6724L2.82133 20.6013C2.26819 21.5228 1.95842 22.5699 1.92118 23.644L1.88315 46.6668Z" fill="#017EFA"/>
<path opacity="0.1" d="M1.88315 46.6668C1.93877 47.7382 2.24684 48.7814 2.78221 49.7111C3.31759 50.6408 4.06514 51.4309 4.96388 52.0168L7.49943 53.4748C8.36932 53.9115 9.32193 54.1588 10.2944 54.2003C11.2669 54.2418 12.2371 54.0766 13.141 53.7157C11.6957 54.2735 10.6055 53.4494 10.6055 51.6872L10.6055 28.7151C10.6465 27.6398 10.9607 26.5927 11.5183 25.6724L2.82133 20.6013C2.26819 21.5228 1.95842 22.5699 1.92118 23.644L1.88315 46.6668Z" fill="black"/>
<path d="M24.183 47.3766L28.6075 55.0467C28.673 55.1547 28.7676 55.242 28.8804 55.2987C28.9932 55.3554 29.1197 55.3792 29.2455 55.3673C29.3712 55.3554 29.491 55.3083 29.5912 55.2314C29.6914 55.1545 29.7679 55.0509 29.8119 54.9326L34.49 41.4307L34.49 35.4849L24.183 41.4307L24.183 47.3766Z" fill="#017EFA"/>
<path d="M17.6355 32.3135C16.79 32.8787 16.0929 33.639 15.6031 34.5303C15.1133 35.4216 14.8451 36.4177 14.8213 37.4345C14.8536 39.2851 16.1331 39.9475 17.7532 39.057C18.5928 38.4857 19.2855 37.724 19.7746 36.834C20.2637 35.9441 20.5354 34.951 20.5675 33.936C20.5479 32.0851 19.2663 31.3087 17.6355 32.3135Z" fill="white"/>
<path d="M28.2381 25.928C27.3947 26.4963 26.6985 27.2571 26.207 28.1476C25.7154 29.038 25.4427 30.0326 25.4112 31.0492C25.4435 32.8998 26.7241 33.6256 28.3558 32.6715C29.1955 32.1002 29.8881 31.3385 30.3772 30.4485C30.8663 29.5585 31.138 28.5655 31.1701 27.5505C31.1378 25.6998 29.8191 24.9747 28.2381 25.928Z" fill="white"/>
<path d="M38.8291 19.5554C37.9895 20.1267 37.2969 20.8884 36.8078 21.7784C36.3187 22.6684 36.047 23.6614 36.0148 24.6764C36.0472 26.5271 37.3267 27.1895 38.9468 26.299C39.7923 25.7338 40.4894 24.9734 40.9792 24.0821C41.469 23.1908 41.7372 22.1947 41.7611 21.178C41.7286 19.3146 40.4226 18.5893 38.8291 19.5554Z" fill="white"/>
</svg>
