<svg width="31" height="31" viewBox="0 0 31 31" fill="none" xmlns="http://www.w3.org/2000/svg">
<path fill-rule="evenodd" clip-rule="evenodd" d="M15 2.5C21.9 2.5 27.5 8.1125 27.5 15L27.4952 15.3497C27.3098 22.0882 21.7831 27.5 15 27.5C8.1125 27.5 2.5 21.9 2.5 15C2.5 8.1125 8.1125 2.5 15 2.5ZM10 17.475C10.375 17.8375 10.9625 17.8375 11.325 17.4625L15 13.775L18.675 17.4625C19.0375 17.8375 19.6375 17.8375 20 17.475C20.375 17.1 20.375 16.5125 20 16.15L15.6625 11.7875C15.4875 11.6125 15.25 11.5125 15 11.5125C14.75 11.5125 14.5125 11.6125 14.3375 11.7875L10 16.15C9.8125 16.325 9.725 16.5625 9.725 16.8C9.725 17.05 9.8125 17.2875 10 17.475Z" fill="#017EFA"/>
</svg>
