<svg width="30" height="30" viewBox="0 0 30 30" fill="none" xmlns="http://www.w3.org/2000/svg">
<path fill-rule="evenodd" clip-rule="evenodd" d="M21.1747 3.75C22.851 3.75 24.4635 4.4125 25.6497 5.60125C26.8372 6.7875 27.501 8.3875 27.501 10.0625V19.9375C27.501 23.425 24.6635 26.25 21.1747 26.25H8.82598C5.33723 26.25 2.50098 23.425 2.50098 19.9375V10.0625C2.50098 6.575 5.32473 3.75 8.82598 3.75H21.1747ZM23.1639 11.925L23.2639 11.825C23.5627 11.4625 23.5627 10.9375 23.2502 10.575C23.0764 10.3887 22.8377 10.275 22.5889 10.25C22.3264 10.2362 22.0764 10.325 21.8877 10.5L16.2514 15C15.5264 15.6012 14.4877 15.6012 13.7514 15L8.12644 10.5C7.73769 10.2125 7.20019 10.25 6.87644 10.5875C6.53894 10.925 6.50144 11.4625 6.78769 11.8375L6.95144 12L12.6389 16.4375C13.3389 16.9875 14.1877 17.2875 15.0764 17.2875C15.9627 17.2875 16.8264 16.9875 17.5252 16.4375L23.1639 11.925Z" fill="#017EFA"/>
</svg>
