<svg width="25" height="25" viewBox="0 0 25 25" fill="none" xmlns="http://www.w3.org/2000/svg">
<path d="M0 8.38542C0 5.41932 0 3.93627 0.586388 2.80743C1.08053 1.85616 1.85616 1.08053 2.80743 0.586388C3.93627 0 5.41932 0 8.38542 0L16.6146 0C19.5807 0 21.0637 0 22.1926 0.586388C23.1438 1.08053 23.9195 1.85616 24.4136 2.80743C25 3.93627 25 5.41932 25 8.38542V16.6146C25 19.5807 25 21.0637 24.4136 22.1926C23.9195 23.1438 23.1438 23.9195 22.1926 24.4136C21.0637 25 19.5807 25 16.6146 25H8.38542C5.41932 25 3.93627 25 2.80743 24.4136C1.85616 23.9195 1.08053 23.1438 0.586388 22.1926C0 21.0637 0 19.5807 0 16.6146L0 8.38542Z" fill="url(#paint0_linear_1_981)"/>
<path d="M17.3611 15.9722L17.9167 12.5H14.5833V10.0694C14.5833 9.0972 14.9305 8.33331 16.4583 8.33331H18.0555V5.13886C17.1528 4.99997 16.1805 4.86108 15.2778 4.86108C12.4305 4.86108 10.4167 6.5972 10.4167 9.7222V12.5H7.29166L7.29166 15.9722H10.4167L10.4167 25C11.8055 25 13.1944 25 14.5833 25V15.9722H17.3611Z" fill="white"/>
<defs>
<linearGradient id="paint0_linear_1_981" x1="12.5" y1="24.2696" x2="12.5" y2="0" gradientUnits="userSpaceOnUse">
<stop stop-color="#0062E0"/>
<stop offset="1" stop-color="#19AFFF"/>
</linearGradient>
</defs>
</svg>
