<svg width="30" height="30" viewBox="0 0 30 30" fill="none" xmlns="http://www.w3.org/2000/svg">
<g clip-path="url(#clip0_1_4104)">
<path d="M0 10.0625C0 6.50318 0 4.72352 0.703666 3.36891C1.29664 2.22739 2.22739 1.29664 3.36891 0.703666C4.72352 0 6.50318 0 10.0625 0H19.9375C23.4968 0 25.2765 0 26.6311 0.703666C27.7726 1.29664 28.7034 2.22739 29.2963 3.36891C30 4.72352 30 6.50318 30 10.0625V19.9375C30 23.4968 30 25.2765 29.2963 26.6311C28.7034 27.7726 27.7726 28.7034 26.6311 29.2963C25.2765 30 23.4968 30 19.9375 30H10.0625C6.50318 30 4.72352 30 3.36891 29.2963C2.22739 28.7034 1.29664 27.7726 0.703666 26.6311C0 25.2765 0 23.4968 0 19.9375V10.0625Z" fill="#0078D7"/>
<path d="M15.0407 21.0191C11.7 21.0191 10.1737 19.3266 10.1737 18.0853C10.1732 17.7891 10.2954 17.5059 10.5115 17.3022C10.7276 17.0985 11.0186 16.9923 11.3159 17.0086C12.7462 17.0086 12.3721 19.1422 15.0407 19.1422C16.4048 19.1422 17.206 18.3256 17.206 17.5584C17.206 17.0975 16.9411 16.5706 16.0406 16.3599L13.0608 15.6124C10.667 15.0066 10.2498 13.6829 10.2498 12.4547C10.2498 9.90617 12.5939 8.9842 14.8255 8.9842C16.8815 8.9842 19.325 10.1136 19.325 11.6414C19.325 12.3 18.772 12.6523 18.1297 12.6523C16.908 12.6523 17.1133 10.9467 14.6566 10.9467C13.4349 10.9467 12.7926 11.5163 12.7926 12.3131C12.7926 13.11 13.7428 13.38 14.5771 13.5611L16.7756 14.055C19.1859 14.595 19.8282 16.001 19.8282 17.3477C19.8282 19.4188 18.2158 21.0191 15.0374 21.0191H15.0407ZM24.2648 16.6365C24.3603 16.0928 24.4079 15.542 24.4072 14.9901C24.4189 12.218 23.1941 9.58344 21.0631 7.79654C18.932 6.00964 16.114 5.25436 13.3687 5.73429C12.5248 5.25113 11.5678 4.99785 10.5941 5.00001C8.59555 5.01216 6.75333 6.07742 5.75404 7.79879C4.75475 9.52016 4.74829 11.6394 5.73706 13.3668C5.18533 16.3817 6.15179 19.4744 8.32469 21.6472C10.4976 23.82 13.602 24.798 16.6365 24.2657C17.4793 24.7485 18.4352 25.0017 19.4077 25C21.4053 24.9872 23.2464 23.9224 24.2455 22.2021C25.2446 20.4817 25.2519 18.3636 24.2648 16.6365Z" fill="white"/>
</g>
<defs>
<clipPath id="clip0_1_4104">
<rect width="30" height="30" fill="white"/>
</clipPath>
</defs>
</svg>
