<svg width="30" height="30" viewBox="0 0 30 30" fill="none" xmlns="http://www.w3.org/2000/svg">
<g clip-path="url(#clip0_1_4102)">
<path d="M0 10.0625C0 6.50318 0 4.72352 0.703666 3.36891C1.29664 2.22739 2.22739 1.29664 3.36891 0.703666C4.72352 0 6.50318 0 10.0625 0H19.9375C23.4968 0 25.2765 0 26.6311 0.703666C27.7726 1.29664 28.7034 2.22739 29.2963 3.36891C30 4.72352 30 6.50318 30 10.0625V19.9375C30 23.4968 30 25.2765 29.2963 26.6311C28.7034 27.7726 27.7726 28.7034 26.6311 29.2963C25.2765 30 23.4968 30 19.9375 30H10.0625C6.50318 30 4.72352 30 3.36891 29.2963C2.22739 28.7034 1.29664 27.7726 0.703666 26.6311C0 25.2765 0 23.4968 0 19.9375V10.0625Z" fill="url(#paint0_linear_1_4102)"/>
<path d="M11.5625 22.9688C10.9551 22.9688 11.0583 22.7394 10.8488 22.161L9.0625 16.2822L22.8125 8.125" fill="#C8DAEA"/>
<path d="M11.5625 22.9688C12.0312 22.9688 12.2384 22.7544 12.5 22.5L15 20.0691L11.8816 18.1886" fill="#A9C9DD"/>
<path d="M11.8812 18.1891L19.4375 23.7718C20.2998 24.2475 20.9221 24.0012 21.1369 22.9712L24.2127 8.47699C24.5276 7.21446 23.7314 6.64183 22.9065 7.01633L4.84556 13.9806C3.61273 14.475 3.61992 15.1628 4.62084 15.4693L9.25569 16.9159L19.9858 10.1464C20.4924 9.83921 20.9573 10.0043 20.5757 10.343" fill="url(#paint1_linear_1_4102)"/>
</g>
<defs>
<linearGradient id="paint0_linear_1_4102" x1="20.001" y1="5.001" x2="12.501" y2="22.5" gradientUnits="userSpaceOnUse">
<stop stop-color="#37AEE2"/>
<stop offset="1" stop-color="#1E96C8"/>
</linearGradient>
<linearGradient id="paint1_linear_1_4102" x1="17.3445" y1="14.3748" x2="20.2787" y2="21.0519" gradientUnits="userSpaceOnUse">
<stop stop-color="#EFF7FC"/>
<stop offset="1" stop-color="white"/>
</linearGradient>
<clipPath id="clip0_1_4102">
<rect width="30" height="30" fill="white"/>
</clipPath>
</defs>
</svg>
