<svg width="25" height="25" viewBox="0 0 25 25" fill="none" xmlns="http://www.w3.org/2000/svg">
<path d="M0 8.38542C0 5.41932 0 3.93627 0.586388 2.80743C1.08053 1.85616 1.85616 1.08053 2.80743 0.586388C3.93627 0 5.41932 0 8.38542 0L16.6146 0C19.5807 0 21.0637 0 22.1926 0.586388C23.1438 1.08053 23.9195 1.85616 24.4136 2.80743C25 3.93627 25 5.41932 25 8.38542V16.6146C25 19.5807 25 21.0637 24.4136 22.1926C23.9195 23.1438 23.1438 23.9195 22.1926 24.4136C21.0637 25 19.5807 25 16.6146 25H8.38542C5.41932 25 3.93627 25 2.80743 24.4136C1.85616 23.9195 1.08053 23.1438 0.586388 22.1926C0 21.0637 0 19.5807 0 16.6146L0 8.38542Z" fill="#1EA1F2"/>
<path fill-rule="evenodd" clip-rule="evenodd" d="M19.439 9.45428C19.4451 9.61042 19.4471 9.76651 19.4471 9.92265C19.4471 14.6568 16.1169 20.122 10.0271 20.122C8.15638 20.122 6.41692 19.5258 4.95132 18.5108C5.21039 18.5392 5.4735 18.5606 5.74065 18.5606C7.2917 18.5606 8.72028 17.9855 9.85346 17.0203C8.40469 16.999 7.18135 15.9556 6.75943 14.5361C6.96198 14.5787 7.17057 14.6 7.38388 14.6C7.68467 14.6 7.97671 14.5575 8.25664 14.4723C6.74058 14.1458 5.59867 12.698 5.59867 10.9591C5.59867 10.9378 5.59867 10.9306 5.59867 10.9164C6.04548 11.179 6.55688 11.3422 7.09991 11.3635C6.21033 10.7176 5.62557 9.61751 5.62557 8.37542C5.62557 7.72244 5.78841 7.10492 6.07507 6.5726C7.70754 8.74447 10.1482 10.1711 12.8997 10.3202C12.8432 10.0576 12.8142 9.78081 12.8142 9.50401C12.8142 7.52377 14.2967 5.91968 16.1256 5.91968C17.0778 5.91968 17.9378 6.35269 18.5413 7.04826C19.297 6.89211 20.0049 6.59403 20.6455 6.18237C20.3972 7.01989 19.873 7.72241 19.188 8.16246C19.8582 8.07729 20.4975 7.8858 21.0903 7.6019C20.6455 8.31875 20.0857 8.95034 19.439 9.45428Z" fill="white"/>
</svg>
