<svg width="30" height="30" viewBox="0 0 30 30" fill="none" xmlns="http://www.w3.org/2000/svg">
<path d="M0 10.0625C0 6.50318 0 4.72352 0.703666 3.36891C1.29664 2.22739 2.22739 1.29664 3.36891 0.703666C4.72352 0 6.50318 0 10.0625 0H19.9375C23.4968 0 25.2765 0 26.6311 0.703666C27.7726 1.29664 28.7034 2.22739 29.2963 3.36891C30 4.72352 30 6.50318 30 10.0625V19.9375C30 23.4968 30 25.2765 29.2963 26.6311C28.7034 27.7726 27.7726 28.7034 26.6311 29.2963C25.2765 30 23.4968 30 19.9375 30H10.0625C6.50318 30 4.72352 30 3.36891 29.2963C2.22739 28.7034 1.29664 27.7726 0.703666 26.6311C0 25.2765 0 23.4968 0 19.9375V10.0625Z" fill="url(#paint0_linear_1_4103)"/>
<path fill-rule="evenodd" clip-rule="evenodd" d="M15.8712 4.12037C18.5267 4.25088 21.001 5.34591 22.8909 7.23707C24.9068 9.25422 26.0164 11.9356 26.0154 14.787C26.0129 20.6713 21.2226 25.459 15.338 25.459H15.3336C13.5465 25.4584 11.7906 25.0103 10.2311 24.1601L4.5708 25.6441L6.08562 20.1139C5.15123 18.4954 4.65956 16.6596 4.66033 14.7786C4.66269 8.89443 9.45258 4.10718 15.3378 4.10718L15.8712 4.12037ZM10.4933 22.2281L10.8174 22.4203C12.18 23.2285 13.7419 23.6561 15.3343 23.6567H15.3379C20.2294 23.6567 24.2106 19.6774 24.2125 14.7864C24.2134 12.4163 23.2912 10.1877 21.6157 8.51108C19.9401 6.83436 17.7119 5.91045 15.3415 5.90968C10.4462 5.90968 6.46506 9.88853 6.46311 14.7792C6.46244 16.4553 6.93161 18.0876 7.81998 19.4998L8.03099 19.8355L7.13445 23.1087L10.4933 22.2281ZM20.7171 17.3248C20.6505 17.2135 20.4726 17.1468 20.2059 17.0133C19.9391 16.8799 18.6274 16.2348 18.3828 16.1457C18.1383 16.0568 17.9604 16.0124 17.7826 16.2792C17.6048 16.5462 17.0935 17.1468 16.9378 17.3248C16.7822 17.5028 16.6266 17.5251 16.3598 17.3916C16.093 17.2581 15.2334 16.9765 14.2143 16.068C13.4212 15.3609 12.8858 14.4877 12.7301 14.2208C12.5745 13.9538 12.7135 13.8095 12.8471 13.6766C12.9671 13.557 13.1139 13.3651 13.2473 13.2094C13.3807 13.0537 13.4251 12.9424 13.5141 12.7645C13.603 12.5865 13.5585 12.4308 13.4919 12.2974C13.4251 12.1638 12.8916 10.8513 12.6693 10.3173C12.4527 9.7974 12.2327 9.86779 12.069 9.85957C11.9136 9.85187 11.7355 9.85018 11.5577 9.85018C11.3798 9.85018 11.0908 9.91687 10.8462 10.1839C10.6017 10.4508 9.91246 11.096 9.91246 12.4085C9.91246 13.7211 10.8685 14.989 11.0019 15.167C11.1353 15.345 12.8831 18.0383 15.5594 19.1935C16.196 19.4682 16.6929 19.6323 17.0804 19.7552C17.7195 19.9581 18.3011 19.9295 18.7608 19.8608C19.2734 19.7843 20.3393 19.2157 20.5616 18.5929C20.7839 17.9699 20.7839 17.436 20.7171 17.3248Z" fill="white"/>
<defs>
<linearGradient id="paint0_linear_1_4103" x1="15" y1="30" x2="15" y2="0" gradientUnits="userSpaceOnUse">
<stop stop-color="#25CF43"/>
<stop offset="1" stop-color="#61FD7D"/>
</linearGradient>
</defs>
</svg>
